HIERARCHY
ROOT pelvis
{
  OFFSET 0 100 0
  CHANNELS 6 Xposition Yposition Zposition Zrotation Xrotation Yrotation
  JOINT pelvis_right_femur
  {
    OFFSET -10.78128 -3.44521 -0.5502486
    CHANNELS 3 Zrotation Xrotation Yrotation
    JOINT right_femur_tibia
    {
      OFFSET -0.8047443 -44.0398 -0.1307829
      CHANNELS 3 Zrotation Xrotation Yrotation
      JOINT right_tibia_foot
      {
        OFFSET 3.006224 -47.83518 -5
        CHANNELS 3 Zrotation Xrotation Yrotation
        End Site
        {
          OFFSET 0 -5 15
        }
      }
    }
  }
  JOINT pelvis_left_femur
  {
    OFFSET 10.78128 -3.44521 -0.5502486
    CHANNELS 3 Zrotation Xrotation Yrotation
    JOINT left_femur_tibia
    {
      OFFSET 0.8047443 -44.0398 -0.1307829
      CHANNELS 3 Zrotation Xrotation Yrotation
      JOINT left_tibia_foot
      {
        OFFSET -4.370144 -48.10324 -4.275266
        CHANNELS 3 Zrotation Xrotation Yrotation
        End Site
        {
          OFFSET 0 -5 15
        }
      }
    }
  }
  JOINT pelvis_spine1
  {
    OFFSET 0 6.468898 -3.129235
    CHANNELS 3 Zrotation Xrotation Yrotation
    JOINT spine1
    {
      OFFSET 0 23.15396 4.99043
      CHANNELS 3 Zrotation Xrotation Yrotation
      JOINT spine2
      {
        OFFSET 0 20.79997 -5.064912
        CHANNELS 3 Zrotation Xrotation Yrotation
        JOINT neck
        {
          OFFSET 0 14.38658 9.616178
          CHANNELS 3 Zrotation Xrotation Yrotation
          End Site
          {
            OFFSET 0 20 0
          }
        }
      }
      JOINT right_manubrium
      {
        OFFSET -5.722621 16.35077 3.967754
        CHANNELS 3 Zrotation Xrotation Yrotation
        JOINT right_clavicle
        {
          OFFSET -13.16364 1.694482 -4.693211
          CHANNELS 3 Zrotation Xrotation Yrotation
          JOINT right_humerus
          {
            OFFSET -28.5034 -0.3100689 -2.792744
            CHANNELS 3 Zrotation Xrotation Yrotation
            JOINT right_radius
            {
              OFFSET -25.15693 0.02248979 -1.271978
              CHANNELS 3 Zrotation Xrotation Yrotation
              End Site
              {
                OFFSET -15 0 0
              }
            }
          }
        }
      }
      JOINT left_manubrium
      {
        OFFSET 5.722621 16.35077 3.967754
        CHANNELS 3 Zrotation Xrotation Yrotation
        JOINT left_clavicle
        {
          OFFSET 13.16364 1.694482 -4.693211
          CHANNELS 3 Zrotation Xrotation Yrotation
          JOINT left_humerus
          {
            OFFSET 29.39168 -1.063119 -2.237045
            CHANNELS 3 Zrotation Xrotation Yrotation
            JOINT left_radius
            {
              OFFSET 24.59957 -0.9528479 0.9047498
              CHANNELS 3 Zrotation Xrotation Yrotation
              End Site
              {
                OFFSET 15 -0 -0
              }
            }
          }
        }
      }
    }
  }
}
MOTION
Frames: 21
Frame Time: 0.0416666666667
-536.5747 100.7037 560.0045 -6.243302 11.43847 -147.299 7.406326 13.15324 1.609065 -0 16.78861 -0 -8.332401 -1.627059 -3.851549 3.317573 -12.26649 -2.794951 -0 27.28036 -0 1.23609 -1.096768 15.69767 3.822782 -4.307852 8.826652 -1.646042 18.51621 -5.680974 2.087895 19.35196 1.945565 0.3875456 -17.29936 4.520182 -6.367401 -32.85382 12.38557 95.93891 10.2164 -13.86313 -0 0 27.46945 -30.62926 19.1608 16.47945 0.6592847 -24.19173 -11.49366 -93.44273 10.39999 38.6295 0 0 -17.46145 0.445409 16.99474 13.51831
-540.6595 100.7093 555.131 -6.011439 11.56082 -148.462 7.406326 13.15324 1.609065 -0 16.78861 -0 -8.332401 -1.627059 -3.851549 3.317573 -12.26649 -2.794951 -0 27.28036 -0 1.23609 -1.096768 15.69767 3.822782 -4.307852 8.826652 -1.646042 18.51621 -5.680974 2.087895 19.35196 1.945565 0.3875456 -17.29936 4.520182 -6.367401 -32.85382 12.38557 95.93891 10.2164 -13.86313 -0 0 27.46945 -30.62926 19.1608 16.47945 0.6592847 -24.19173 -11.49366 -93.44273 10.39999 38.6295 0 0 -17.46145 0.445409 16.99474 13.51831
-544.6461 100.715 550.1768 -5.776988 11.67852 -149.626 7.406326 13.15324 1.609065 -0 16.78861 -0 -8.332401 -1.627059 -3.851549 3.317573 -12.26649 -2.794951 -0 27.28036 -0 1.23609 -1.096768 15.69767 3.822782 -4.307852 8.826652 -1.646042 18.51621 -5.680974 2.087895 19.35196 1.945565 0.3875456 -17.29936 4.520182 -6.367401 -32.85382 12.38557 95.93891 10.2164 -13.86313 -0 0 27.46945 -30.62926 19.1608 16.47945 0.6592847 -24.19173 -11.49366 -93.44273 10.39999 38.6295 0 0 -17.46145 0.445409 16.99474 13.51831
-548.5327 100.7206 545.1438 -5.540045 11.79154 -150.791 7.406326 13.15324 1.609065 -0 16.78861 -0 -8.332401 -1.627059 -3.851549 3.317573 -12.26649 -2.794951 -0 27.28036 -0 1.23609 -1.096768 15.69767 3.822782 -4.307852 8.826652 -1.646042 18.51621 -5.680974 2.087895 19.35196 1.945565 0.3875456 -17.29936 4.520182 -6.367401 -32.85382 12.38557 95.93891 10.2164 -13.86313 -0 0 27.46945 -30.62926 19.1608 16.47945 0.6592847 -24.19173 -11.49366 -93.44273 10.39999 38.6295 0 0 -17.46145 0.445409 16.99474 13.51831
-552.3179 100.7262 540.0341 -5.300707 11.89982 -151.9569 7.406326 13.15324 1.609065 -0 16.78861 -0 -8.332401 -1.627059 -3.851549 3.317573 -12.26649 -2.794951 -0 27.28036 -0 1.23609 -1.096768 15.69767 3.822782 -4.307852 8.826652 -1.646042 18.51621 -5.680974 2.087895 19.35196 1.945565 0.3875456 -17.29936 4.520182 -6.367401 -32.85382 12.38557 95.93891 10.2164 -13.86313 -0 0 27.46945 -30.62926 19.1608 16.47945 0.6592847 -24.19173 -11.49366 -93.44273 10.39999 38.6295 0 0 -17.46145 0.445409 16.99474 13.51831
-556.0002 100.7318 534.8497 -5.059072 12.0033 -153.1237 7.406326 13.15324 1.609065 -0 16.78861 -0 -8.332401 -1.627059 -3.851549 3.317573 -12.26649 -2.794951 -0 27.28036 -0 1.23609 -1.096768 15.69767 3.822782 -4.307852 8.826652 -1.646042 18.51621 -5.680974 2.087895 19.35196 1.945565 0.3875456 -17.29936 4.520182 -6.367401 -32.85382 12.38557 95.93891 10.2164 -13.86313 -0 0 27.46945 -30.62926 19.1608 16.47945 0.6592847 -24.19173 -11.49366 -93.44273 10.39999 38.6295 0 0 -17.46145 0.445409 16.99474 13.51831
-559.578 100.7375 529.5926 -4.815242 12.10195 -154.2913 7.406326 13.15324 1.609065 -0 16.78861 -0 -8.332401 -1.627059 -3.851549 3.317573 -12.26649 -2.794951 -0 27.28036 -0 1.23609 -1.096768 15.69767 3.822782 -4.307852 8.826652 -1.646042 18.51621 -5.680974 2.087895 19.35196 1.945565 0.3875456 -17.29936 4.520182 -6.367401 -32.85382 12.38557 95.93891 10.2164 -13.86313 -0 0 27.46945 -30.62926 19.1608 16.47945 0.6592847 -24.19173 -11.49366 -93.44273 10.39999 38.6295 0 0 -17.46145 0.445409 16.99474 13.51831
-563.0499 100.7431 524.2651 -4.569317 12.19572 -155.4599 7.406326 13.15324 1.609065 -0 16.78861 -0 -8.332401 -1.627059 -3.851549 3.317573 -12.26649 -2.794951 -0 27.28036 -0 1.23609 -1.096768 15.69767 3.822782 -4.307852 8.826652 -1.646042 18.51621 -5.680974 2.087895 19.35196 1.945565 0.3875456 -17.29936 4.520182 -6.367401 -32.85382 12.38557 95.93891 10.2164 -13.86313 -0 0 27.46945 -30.62926 19.1608 16.47945 0.6592847 -24.19173 -11.49366 -93.44273 10.39999 38.6295 0 0 -17.46145 0.445409 16.99474 13.51831
-566.4145 100.7487 518.8692 -4.321401 12.28456 -156.6292 7.406326 13.15324 1.609065 -0 16.78861 -0 -8.332401 -1.627059 -3.851549 3.317573 -12.26649 -2.794951 -0 27.28036 -0 1.23609 -1.096768 15.69767 3.822782 -4.307852 8.826652 -1.646042 18.51621 -5.680974 2.087895 19.35196 1.945565 0.3875456 -17.29936 4.520182 -6.367401 -32.85382 12.38557 95.93891 10.2164 -13.86313 -0 0 27.46945 -30.62926 19.1608 16.47945 0.6592847 -24.19173 -11.49366 -93.44273 10.39999 38.6295 0 0 -17.46145 0.445409 16.99474 13.51831
-569.6706 100.7543 513.407 -4.071599 12.36844 -157.7993 7.406326 13.15324 1.609065 -0 16.78861 -0 -8.332401 -1.627059 -3.851549 3.317573 -12.26649 -2.794951 -0 27.28036 -0 1.23609 -1.096768 15.69767 3.822782 -4.307852 8.826652 -1.646042 18.51621 -5.680974 2.087895 19.35196 1.945565 0.3875456 -17.29936 4.520182 -6.367401 -32.85382 12.38557 95.93891 10.2164 -13.86313 -0 0 27.46945 -30.62926 19.1608 16.47945 0.6592847 -24.19173 -11.49366 -93.44273 10.39999 38.6295 0 0 -17.46145 0.445409 16.99474 13.51831
-572.8167 100.76 507.8808 -3.820017 12.44731 -158.9701 7.406326 13.15324 1.609065 -0 16.78861 -0 -8.332401 -1.627059 -3.851549 3.317573 -12.26649 -2.794951 -0 27.28036 -0 1.23609 -1.096768 15.69767 3.822782 -4.307852 8.826652 -1.646042 18.51621 -5.680974 2.087895 19.35196 1.945565 0.3875456 -17.29936 4.520182 -6.367401 -32.85382 12.38557 95.93891 10.2164 -13.86313 -0 0 27.46945 -30.62926 19.1608 16.47945 0.6592847 -24.19173 -11.49366 -93.44273 10.39999 38.6295 0 0 -17.46145 0.445409 16.99474 13.51831
-575.8516 100.7656 502.2928 -3.566763 12.52115 -160.1416 7.406326 13.15324 1.609065 -0 16.78861 -0 -8.332401 -1.627059 -3.851549 3.317573 -12.26649 -2.794951 -0 27.28036 -0 1.23609 -1.096768 15.69767 3.822782 -4.307852 8.826652 -1.646042 18.51621 -5.680974 2.087895 19.35196 1.945565 0.3875456 -17.29936 4.520182 -6.367401 -32.85382 12.38557 95.93891 10.2164 -13.86313 -0 0 27.46945 -30.62926 19.1608 16.47945 0.6592847 -24.19173 -11.49366 -93.44273 10.39999 38.6295 0 0 -17.46145 0.445409 16.99474 13.51831
-578.7742 100.7712 496.6452 -3.311944 12.58991 -161.3137 7.406326 13.15324 1.609065 -0 16.78861 -0 -8.332401 -1.627059 -3.851549 3.317573 -12.26649 -2.794951 -0 27.28036 -0 1.23609 -1.096768 15.69767 3.822782 -4.307852 8.826652 -1.646042 18.51621 -5.680974 2.087895 19.35196 1.945565 0.3875456 -17.29936 4.520182 -6.367401 -32.85382 12.38557 95.93891 10.2164 -13.86313 -0 0 27.46945 -30.62926 19.1608 16.47945 0.6592847 -24.19173 -11.49366 -93.44273 10.39999 38.6295 0 0 -17.46145 0.445409 16.99474 13.51831
-581.5832 100.7768 490.9402 -3.055672 12.65357 -162.4865 7.406326 13.15324 1.609065 -0 16.78861 -0 -8.332401 -1.627059 -3.851549 3.317573 -12.26649 -2.794951 -0 27.28036 -0 1.23609 -1.096768 15.69767 3.822782 -4.307852 8.826652 -1.646042 18.51621 -5.680974 2.087895 19.35196 1.945565 0.3875456 -17.29936 4.520182 -6.367401 -32.85382 12.38557 95.93891 10.2164 -13.86313 -0 0 27.46945 -30.62926 19.1608 16.47945 0.6592847 -24.19173 -11.49366 -93.44273 10.39999 38.6295 0 0 -17.46145 0.445409 16.99474 13.51831
-584.2776 100.7825 485.1802 -2.798055 12.7121 -163.6598 7.406326 13.15324 1.609065 -0 16.78861 -0 -8.332401 -1.627059 -3.851549 3.317573 -12.26649 -2.794951 -0 27.28036 -0 1.23609 -1.096768 15.69767 3.822782 -4.307852 8.826652 -1.646042 18.51621 -5.680974 2.087895 19.35196 1.945565 0.3875456 -17.29936 4.520182 -6.367401 -32.85382 12.38557 95.93891 10.2164 -13.86313 -0 0 27.46945 -30.62926 19.1608 16.47945 0.6592847 -24.19173 -11.49366 -93.44273 10.39999 38.6295 0 0 -17.46145 0.445409 16.99474 13.51831
-586.8561 100.7881 479.3675 -2.539207 12.76547 -164.8337 7.406326 13.15324 1.609065 -0 16.78861 -0 -8.332401 -1.627059 -3.851549 3.317573 -12.26649 -2.794951 -0 27.28036 -0 1.23609 -1.096768 15.69767 3.822782 -4.307852 8.826652 -1.646042 18.51621 -5.680974 2.087895 19.35196 1.945565 0.3875456 -17.29936 4.520182 -6.367401 -32.85382 12.38557 95.93891 10.2164 -13.86313 -0 0 27.46945 -30.62926 19.1608 16.47945 0.6592847 -24.19173 -11.49366 -93.44273 10.39999 38.6295 0 0 -17.46145 0.445409 16.99474 13.51831
-589.3179 100.7937 473.5043 -2.27924 12.81365 -166.008 7.406326 13.15324 1.609065 -0 16.78861 -0 -8.332401 -1.627059 -3.851549 3.317573 -12.26649 -2.794951 -0 27.28036 -0 1.23609 -1.096768 15.69767 3.822782 -4.307852 8.826652 -1.646042 18.51621 -5.680974 2.087895 19.35196 1.945565 0.3875456 -17.29936 4.520182 -6.367401 -32.85382 12.38557 95.93891 10.2164 -13.86313 -0 0 27.46945 -30.62926 19.1608 16.47945 0.6592847 -24.19173 -11.49366 -93.44273 10.39999 38.6295 0 0 -17.46145 0.445409 16.99474 13.51831
-591.6619 100.7994 467.5931 -2.018268 12.85663 -167.1827 7.406326 13.15324 1.609065 -0 16.78861 -0 -8.332401 -1.627059 -3.851549 3.317573 -12.26649 -2.794951 -0 27.28036 -0 1.23609 -1.096768 15.69767 3.822782 -4.307852 8.826652 -1.646042 18.51621 -5.680974 2.087895 19.35196 1.945565 0.3875456 -17.29936 4.520182 -6.367401 -32.85382 12.38557 95.93891 10.2164 -13.86313 -0 0 27.46945 -30.62926 19.1608 16.47945 0.6592847 -24.19173 -11.49366 -93.44273 10.39999 38.6295 0 0 -17.46145 0.445409 16.99474 13.51831
-593.8872 100.805 461.6362 -1.756405 12.89438 -168.3578 7.406326 13.15324 1.609065 -0 16.78861 -0 -8.332401 -1.627059 -3.851549 3.317573 -12.26649 -2.794951 -0 27.28036 -0 1.23609 -1.096768 15.69767 3.822782 -4.307852 8.826652 -1.646042 18.51621 -5.680974 2.087895 19.35196 1.945565 0.3875456 -17.29936 4.520182 -6.367401 -32.85382 12.38557 95.93891 10.2164 -13.86313 -0 0 27.46945 -30.62926 19.1608 16.47945 0.6592847 -24.19173 -11.49366 -93.44273 10.39999 38.6295 0 0 -17.46145 0.445409 16.99474 13.51831
-595.9929 100.8106 455.6359 -1.493765 12.92689 -169.5333 7.406326 13.15324 1.609065 -0 16.78861 -0 -8.332401 -1.627059 -3.851549 3.317573 -12.26649 -2.794951 -0 27.28036 -0 1.23609 -1.096768 15.69767 3.822782 -4.307852 8.826652 -1.646042 18.51621 -5.680974 2.087895 19.35196 1.945565 0.3875456 -17.29936 4.520182 -6.367401 -32.85382 12.38557 95.93891 10.2164 -13.86313 -0 0 27.46945 -30.62926 19.1608 16.47945 0.6592847 -24.19173 -11.49366 -93.44273 10.39999 38.6295 0 0 -17.46145 0.445409 16.99474 13.51831
-597.9781 100.8162 449.5947 -1.230465 12.95413 -170.709 7.406326 13.15324 1.609065 -0 16.78861 -0 -8.332401 -1.627059 -3.851549 3.317573 -12.26649 -2.794951 -0 27.28036 -0 1.23609 -1.096768 15.69767 3.822782 -4.307852 8.826652 -1.646042 18.51621 -5.680974 2.087895 19.35196 1.945565 0.3875456 -17.29936 4.520182 -6.367401 -32.85382 12.38557 95.93891 10.2164 -13.86313 -0 0 27.46945 -30.62926 19.1608 16.47945 0.6592847 -24.19173 -11.49366 -93.44273 10.39999 38.6295 0 0 -17.46145 0.445409 16.99474 13.51831
